<svg width="84" height="94" viewBox="0 0 84 94" fill="none" xmlns="http://www.w3.org/2000/svg">
<path d="M77.6518 38.2524C46.1093 42.6683 23.7428 59.0704 12.2155 71.63L24.6605 78.7988C37.3348 57.522 58.2675 44.7903 77.6518 38.2524Z" fill="#8C0436"/>
<path d="M77.8238 32.46C47.1416 27.5853 21.6209 35.729 5.10413 44.9623V59.4718C25.7501 37.6789 54.253 31.5998 77.8238 32.46Z" fill="#8C0436"/>
<path d="M77.7665 28.1588C77.365 26.3236 76.046 24.4311 74.5549 23.5708L44.905 6.48057C43.0698 5.39092 40.0302 5.39092 38.1377 6.48057L8.48777 23.5708C6.65257 24.6605 5.10413 27.2986 5.10413 29.4205V29.5926C30.1087 18.4667 57.5219 21.3342 77.7665 28.1588Z" fill="#8C0436"/>
<path d="M36.5319 85.6808L38.1377 86.5984C39.9729 87.688 43.0124 87.688 44.9049 86.5984L74.5549 69.5081C76.3901 68.4185 77.9385 65.8377 77.9385 63.6584V45.0197C57.694 56.4897 44.4461 72.1462 36.5319 85.6808Z" fill="#8C0436"/>
<path d="M41.5213 93.0789C39.8582 93.0789 38.3097 92.6774 37.1054 91.9892L4.41593 73.1211C1.94989 71.6874 0 68.3037 0 65.4362V27.6426C0 24.7751 1.94989 21.3915 4.41593 19.9578L37.1054 1.08964C38.3097 0.401446 39.8582 0 41.5213 0C43.1845 0 44.7329 0.401446 45.9373 1.08964L78.6841 19.9578C81.1501 21.3915 83.1 24.7751 83.1 27.6426V65.4362C83.1 68.3037 81.1501 71.6874 78.6841 73.1211L45.9373 91.9892C44.7329 92.6774 43.1845 93.0789 41.5213 93.0789ZM41.5213 2.8675C40.3743 2.8675 39.2847 3.09688 38.5391 3.55568L5.79234 22.4238C4.18655 23.3414 2.81014 25.8074 2.81014 27.6426V65.4362C2.81014 67.2714 4.18655 69.7375 5.79234 70.6551L38.5391 89.5232C39.2847 89.982 40.3743 90.2114 41.5213 90.2114C42.6683 90.2114 43.758 89.982 44.5035 89.5232L77.193 70.6551C78.7988 69.7375 80.1752 67.2714 80.1752 65.4362V27.6426C80.1752 25.8074 78.7414 23.3414 77.193 22.4238L44.5035 3.55568C43.758 3.09688 42.6683 2.8675 41.5213 2.8675Z" fill="#8C0436"/>
</svg>
